<svg width="100" height="100" viewBox="0 0 100 100" fill="none" xmlns="http://www.w3.org/2000/svg">
<path d="M23.0132 29.5676C21.8692 32.8894 21.5943 36.2332 21.8802 39.698H27.0389C26.434 31.9434 28.8208 25.3108 34.5735 20.0642C39.2372 15.8074 44.8468 13.8495 51.1494 14.1465C64.2276 14.7515 74.446 26.3558 72.9501 39.7529H78.1198C78.4608 36.2552 78.0978 32.8894 77.0309 29.6116C80.9136 28.8636 85.0384 31.7674 85.7313 35.6722C85.8193 36.1452 85.8853 36.6181 85.8853 37.1021C85.8963 42.0408 85.8853 46.9795 85.8853 51.9182C85.8853 52.1052 85.8853 52.2812 85.8853 52.5562C85.5443 52.5562 85.2584 52.5562 84.9724 52.5562C81.0236 52.5562 77.0639 52.5232 73.1151 52.5782C68.4074 52.6442 64.2606 55.889 63.0727 60.3327C61.5548 66.0303 65.5476 72.102 71.3662 72.9049C72.3342 73.0369 73.3351 73.0589 74.314 73.0589C78.1308 73.0809 81.9476 73.0589 85.8743 73.0589C85.8743 74.7968 85.8963 76.4907 85.8633 78.1846C85.8413 78.8666 85.7533 79.5705 85.5663 80.2305C84.6754 83.5413 81.6836 85.8621 78.2628 85.8621C59.4099 85.8621 40.5571 85.8731 21.7042 85.8621C17.5465 85.8621 14.1037 82.4193 14.1037 78.2616C14.0927 64.5344 14.0927 50.8183 14.1037 37.0911C14.1037 32.5594 18.2615 29.0066 22.9802 29.5566L23.0132 29.5676ZM57.2101 39.61C57.0891 39.346 56.9791 39.027 56.8141 38.73C55.3512 36.1232 53.1183 34.7483 50.1375 34.6163C48.5646 34.5503 47.4427 33.4943 47.4537 32.0424C47.4537 30.6785 48.5646 29.5456 49.9175 29.4906C51.3804 29.4466 52.4694 30.5135 52.5684 32.0974C52.6674 33.5823 53.8223 34.6713 55.2302 34.6163C56.6381 34.5613 57.727 33.3843 57.683 31.8994C57.617 29.6886 56.7921 27.7857 55.0982 26.3448C54.3502 25.6958 53.4483 25.2228 52.5464 24.6289C52.5464 24.5079 52.5684 24.2879 52.5464 24.0789C52.3814 22.781 51.2594 21.791 49.9615 21.813C48.6636 21.824 47.5307 22.836 47.4647 24.1449C47.4317 24.7059 47.2117 24.8929 46.7607 25.1018C43.7579 26.4768 41.932 29.7436 42.339 32.9224C42.79 36.3872 45.3088 39.236 48.6966 39.566C51.4904 39.8409 54.3283 39.621 57.1991 39.621L57.2101 39.61ZM50.0495 65.3704C50.8965 65.3704 51.7544 65.3924 52.6014 65.3704C54.0863 65.3264 55.1532 64.1715 55.1422 62.6536C55.1312 61.3336 54.0203 60.2667 52.5794 60.2557C50.8745 60.2337 49.1696 60.2337 47.4647 60.2557C45.9798 60.2777 44.8798 61.3446 44.8908 62.7305C44.8908 64.2375 45.9908 65.3484 47.4977 65.3814C48.3446 65.4034 49.2026 65.3814 50.0495 65.3814V65.3704Z" fill="white"/>
<path d="M85.8632 57.6875V67.8949C85.5772 67.9059 85.3132 67.9279 85.0603 67.9279C81.1335 67.9279 77.2177 67.9279 73.291 67.9279C70.2662 67.9279 67.9673 65.728 67.9563 62.8352C67.9563 59.8874 70.2332 57.6875 73.313 57.6875C77.2397 57.6875 81.1555 57.6875 85.0823 57.6875C85.3242 57.6875 85.5552 57.6875 85.8632 57.6875V57.6875Z" fill="white"/>
</svg>
